<?xml version="1.0" encoding="UTF-8"?>
<svg width="32px" height="32px" viewBox="0 0 32 32" version="1.1" xmlns="http://www.w3.org/2000/svg" xmlns:xlink="http://www.w3.org/1999/xlink">
    <title>fabric</title>
    <g id="naslovna" stroke="none" stroke-width="1" fill="none" fill-rule="evenodd">
        <g id="index" transform="translate(-741.000000, -879.000000)" fill="#FFFFFF" fill-rule="nonzero">
            <g id="uvps" transform="translate(0.000000, 854.000000)">
                <g id="fabric" transform="translate(741.000000, 25.000000)">
                    <path d="M23.905105,29.6469275 C23.5146205,29.6271012 23.1332329,29.5218931 22.78781,29.338715 C22.7952094,29.4382491 22.8117066,29.5368967 22.837095,29.6334225 C22.9427992,30.0000486 23.1139282,30.3445392 23.3422225,30.6502675 C23.3981069,30.7269777 23.4488368,30.8073136 23.4940775,30.890745 C23.4738049,30.9211258 23.4506683,30.9494945 23.424985,30.9754625 L23.424985,30.975585 C23.4201025,30.980585 23.4157075,30.984985 23.4118025,30.9886475 C23.314757,30.9384893 23.221567,30.8811996 23.133,30.81725 C22.7996164,30.5495348 22.3913376,30.3919303 21.9645425,30.3662 C21.5728224,30.3607894 21.1903178,30.4851291 20.8766525,30.7198375 C20.5641821,30.9678839 20.1219854,30.9678839 19.809515,30.7198375 C19.1608922,30.2483211 18.2823578,30.2483211 17.633735,30.7198375 C17.3214471,30.9678389 16.8794298,30.9678897 16.567085,30.71996 C15.9188749,30.2483249 15.0405432,30.2482754 14.39228,30.7198375 C14.0798096,30.9678839 13.6376129,30.9678839 13.3251425,30.7198375 C12.6765199,30.2483657 11.7980382,30.2483163 11.1493625,30.719715 C10.836766,30.9678795 10.3943884,30.9679302 10.081735,30.7198375 C9.43311188,30.2483645 8.55462871,30.2483151 7.9059525,30.719715 C7.5932651,30.9678787 7.15082683,30.9679294 6.8380825,30.7198375 C6.18936955,30.2483659 5.31082353,30.2483165 4.6620575,30.719715 C4.51253856,30.8447936 4.32250269,30.9109892 4.1276325,30.9058725 C3.93260817,30.9110298 3.74240543,30.8448364 3.59272,30.719715 C3.27864707,30.4850876 2.89585089,30.3608079 2.5038525,30.3662 C2.07687579,30.391872 1.66841271,30.5495247 1.3349075,30.8173725 C1.24602343,30.8814656 1.15250488,30.9388733 1.0551225,30.9891225 C1.0509725,30.9853375 1.0463325,30.9807 1.0409625,30.9753275 C1.02751523,30.9614304 1.01518844,30.9464913 1.0040975,30.93065 C1.05523036,30.8254411 1.1166461,30.7255488 1.1874475,30.6324325 C1.46666147,30.2943245 1.63047478,29.8758099 1.6549675,29.438 C1.6605782,29.0358449 1.53596854,28.6426611 1.2997425,28.31715 C1.04030237,27.976118 1.04030237,27.5038845 1.2997425,27.1628525 C1.53597388,26.837437 1.66058697,26.4443283 1.6549675,26.0422475 C1.66060084,25.6400891 1.53598897,25.2468983 1.2997425,24.9213975 C1.04030185,24.5806376 1.04030185,24.1085924 1.2997425,23.7678325 C1.53598449,23.4425569 1.66060287,23.049556 1.6549675,22.6475825 C1.66058915,22.2455026 1.53597871,21.8523939 1.29975,21.5269775 C1.04030958,21.1859911 1.04030958,20.7137889 1.29975,20.3728025 C1.53599647,20.0473017 1.66060834,19.6541109 1.654975,19.2519525 C1.66061255,18.8498313 1.53599898,18.4566781 1.29975,18.131225 C1.04030965,17.7900121 1.04030965,17.3176529 1.29975,16.97644 C1.53599898,16.6509869 1.66061255,16.2578337 1.654975,15.8557125 C1.66059885,15.4534806 1.53599046,15.0602157 1.29975,14.73462 C1.04030998,14.393498 1.04030998,13.921202 1.29975,13.58008 C1.53597871,13.2546167 1.66059008,12.8614704 1.654975,12.4593525 C1.66061729,12.0570793 1.53600842,11.663769 1.29975,11.338135 C1.04022051,10.9962408 1.04032274,10.5232995 1.3,10.1815175 C1.53604384,9.85560425 1.66054653,9.4621869 1.65498,9.0598125 C1.6305238,8.62176335 1.4667079,8.20299551 1.18744,7.864625 C1.11638742,7.7713734 1.05488119,7.67122069 1.0038475,7.565675 C1.0148537,7.54936776 1.02735883,7.53412407 1.0412,7.5201425 C1.04608333,7.51501583 1.0504775,7.51062167 1.0543825,7.50696 C1.15150574,7.55711787 1.24477863,7.6144039 1.333435,7.6783475 C1.66681862,7.94606275 2.07509741,8.10366724 2.5018925,8.1293975 C2.63869397,8.12988772 2.77514945,8.11562443 2.9088925,8.086855 C2.842542,7.73903635 2.83759482,7.38228726 2.894275,7.0327625 C2.77569817,7.10253498 2.63931195,7.13612406 2.501895,7.1293975 C2.27735017,7.09503313 2.06692397,6.99844731 1.8944725,6.85059 C1.5556025,6.62085 0.92475,6.193725 0.317565,6.829955 C-0.3006,7.4781475 0.1337275,8.10144 0.3668825,8.4362775 C0.521762683,8.61151608 0.621915054,8.8282872 0.6549675,9.0598125 C0.660447466,9.26968429 0.591425842,9.47471563 0.4601425,9.6385475 C-0.0132521633,10.311235 -0.0131521177,11.2087631 0.4603925,11.881345 C0.591451784,12.0450003 0.66037924,12.2497493 0.6549725,12.459345 C0.660365618,12.668642 0.591426752,12.8730803 0.4603925,13.0363725 C-0.0132408343,13.7085528 -0.0132408343,14.6058922 0.4603925,15.2780725 C0.591450154,15.4415882 0.660382835,15.6462244 0.6549725,15.85571 C0.660363797,16.0650807 0.591428369,16.2695948 0.4603925,16.43298 C-0.0132408343,17.1051603 -0.0132408343,18.0024997 0.4603925,18.67468 C0.591428369,18.8380652 0.660363797,19.0425793 0.6549725,19.25195 C0.660363194,19.4613579 0.591429466,19.6659104 0.4603925,19.8293425 C-0.0132401662,20.5013882 -0.0132401662,21.3986293 0.4603925,22.070675 C0.591425863,22.2339202 0.660366459,22.4383203 0.6549725,22.64758 C0.660328676,22.856648 0.591384199,23.0608435 0.4603925,23.223875 C-0.0132407007,23.8957866 -0.0132407007,24.7929309 0.4603925,25.4648425 C0.591429466,25.6282746 0.660363194,25.8328271 0.6549725,26.042235 C0.660365618,26.251532 0.591426752,26.4559703 0.4603925,26.6192625 C-0.0132383751,27.2913986 -0.0132383751,28.1887039 0.4603925,28.86084 C0.591445787,29.0241682 0.660385269,29.228651 0.6549725,29.4379875 C0.621813574,29.66918 0.521758447,29.8856259 0.36713,30.0606675 C0.1337325,30.3956275 -0.300595,31.0189175 0.3183025,31.66638 C0.49369936,31.8721596 0.748441018,31.9934919 1.01875,32 C1.33969071,31.9704918 1.64480909,31.847018 1.8959475,31.64502 C2.06860599,31.4971917 2.27917875,31.4006161 2.5038575,31.3662125 C2.69898206,31.3610029 2.88928933,31.4272505 3.039,31.5525 C3.35301567,31.7870439 3.73571987,31.9112787 4.1276225,31.9058925 C4.5193859,31.9112204 4.90192975,31.786939 5.2157575,31.5523775 C5.5285363,31.3042133 5.97103679,31.3041625 6.2838725,31.552255 C6.9324958,32.0237726 7.8110317,32.0237726 8.459655,31.552255 C8.77239913,31.3042083 9.21478087,31.3042083 9.527525,31.552255 C10.1762379,32.0237719 11.0548371,32.0237719 11.70355,31.552255 C12.0161118,31.3042081 12.4583707,31.3042081 12.7709325,31.552255 C13.4194657,32.023772 14.2979368,32.023772 14.94647,31.552255 C15.2586669,31.3042527 15.7006236,31.3042019 16.0128775,31.5521325 C16.6611777,32.0237681 17.5395741,32.0238176 18.1879275,31.552255 C18.5004893,31.3042081 18.9427482,31.3042081 19.25531,31.552255 C19.9038432,32.023772 20.7823143,32.023772 21.4308475,31.552255 C21.580099,31.4272233 21.7699063,31.3610601 21.96454,31.36622 C22.188995,31.4006399 22.3993277,31.4972218 22.5717175,31.6450275 C22.91083,31.8746425 23.5419325,32.302375 24.1486225,31.6655275 C24.7909575,30.9921875 24.3998425,30.4234625 24.1662,30.0836175 C24.0670018,29.9456825 23.9796583,29.7995976 23.905105,29.6469275 Z" id="Path"></path>
                    <path d="M31.666565,23.5879675 C31.5035993,23.3758462 31.3806596,23.1357987 31.3037725,22.8795925 C31.2464,22.66487 31.29425,22.5971225 31.4526975,22.37239 C31.7131177,22.0519182 31.8571906,21.6526204 31.86139,21.2397 C31.8670751,20.8374972 31.7425544,20.444238 31.50641,20.1186075 C31.2469678,19.7772588 31.2469678,19.3048037 31.50641,18.963455 C31.979717,18.2912612 31.979717,17.3941938 31.50641,16.722 C31.2469693,16.3806963 31.2469693,15.9082737 31.50641,15.56697 C31.9797175,14.8946865 31.9797175,13.9975535 31.50641,13.32527 C31.2469702,12.9841024 31.2469702,12.5117751 31.50641,12.1706075 C31.9797195,11.4985043 31.9797195,10.6015007 31.50641,9.9293975 C31.2470586,9.5886843 31.2469563,9.11678059 31.50616,8.775955 C31.9797049,8.10408936 31.9798049,7.20708128 31.50641,6.53511 C31.24697,6.19398797 31.24697,5.72169203 31.50641,5.38057 C31.742456,5.05502823 31.8669703,4.66191713 31.86139,4.2598425 C31.8669516,3.85780843 31.7424379,3.46474196 31.50641,3.1392375 C31.3753556,2.97586238 31.3064178,2.7713413 31.31183,2.5619675 C31.3449889,2.33077496 31.4450441,2.11432907 31.5996725,1.9392875 C31.83307,1.6043275 32.2673975,0.9809125 31.6482575,0.333575 C31.03986,-0.30229 30.4094875,0.1252 30.070865,0.354825 C29.8981531,0.502740547 29.6874869,0.599360371 29.4627075,0.63375 C29.2676831,0.638907489 29.0774803,0.572714081 28.927795,0.4475925 C28.2786697,-0.0237609285 27.3999203,-0.0237609285 26.750795,0.4475925 C26.6012971,0.572708187 26.4112467,0.638908865 26.21637,0.63375 C26.0218107,0.638909053 25.8320805,0.572742359 25.6829225,0.447715 C25.0342096,-0.0237565776 24.1556635,-0.0238060356 23.5068975,0.4475925 C23.3576165,0.572752473 23.1676998,0.638967327 22.9729625,0.63375 C22.7783288,0.638909858 22.5885215,0.572746653 22.43927,0.447715 C21.7905571,-0.0238019393 20.9119579,-0.0238019393 20.263245,0.447715 C20.1139935,0.572746653 19.9241862,0.638909858 19.7295525,0.63375 C19.5349188,0.638909858 19.3451115,0.572746653 19.19586,0.447715 C18.5473268,-0.0238019883 17.6688557,-0.0238019883 17.0203225,0.447715 C16.8711645,0.572742359 16.6814343,0.638909053 16.486875,0.63375 C16.2924998,0.638811203 16.1029698,0.572697416 15.953915,0.4478375 C15.3055251,-0.0237974197 14.4270655,-0.0238468895 13.7786225,0.447715 C13.629371,0.572746653 13.4395637,0.638909858 13.24493,0.63375 C13.0503707,0.638909053 12.8606405,0.572742359 12.7114825,0.447715 C12.0628597,-0.0238013514 11.1843253,-0.0238013514 10.5357025,0.447715 C10.3865432,0.572743514 10.196811,0.638910282 10.00225,0.63375 C9.77770517,0.599385632 9.56727897,0.502799809 9.3948275,0.3549425 C9.05596,0.125205 8.4248575,-0.3019175 7.8179225,0.3343125 C7.1997675,0.9825 7.634095,1.60579 7.86725,1.9406275 C7.97257057,2.07705346 8.05850872,2.2273956 8.12262,2.3873775 C8.48660318,2.44896986 8.8341006,2.58450863 9.1436625,2.7856275 C9.15133505,2.71204793 9.15523099,2.63812344 9.155335,2.564145 C9.13088217,2.12609614 8.96706979,1.70732746 8.687805,1.368955 C8.61675242,1.2757034 8.55524619,1.17555069 8.5042125,1.070005 C8.5152187,1.05369776 8.52772383,1.03845407 8.541565,1.0244725 C8.54644833,1.01934583 8.5508425,1.01495167 8.5547475,1.01129 C8.65187074,1.06144787 8.74514363,1.1187339 8.8338,1.1826775 C9.16717879,1.45039939 9.575455,1.60801176 10.00225,1.63375 C10.39389,1.63912425 10.7763064,1.51478547 11.0898975,1.2801125 C11.4024593,1.03206558 11.8447182,1.03206558 12.15728,1.2801125 C12.4708732,1.51478704 12.8532924,1.63912591 13.244935,1.63375 C13.6366252,1.6390845 14.0190943,1.51479674 14.332825,1.2802275 C14.6451463,1.03210704 15.0872824,1.03200344 15.39972,1.2799775 C15.7130811,1.51474609 16.0953648,1.63913732 16.4868775,1.6337275 C16.8785138,1.63909309 17.2609259,1.51476096 17.574525,1.280105 C17.8869956,1.03201324 18.3292489,1.03206401 18.6416625,1.2802275 C18.9553932,1.51479674 19.3378623,1.6390845 19.7295525,1.63375 C20.1212656,1.63911472 20.5037559,1.51477965 20.8174425,1.2801125 C21.1300959,1.03201978 21.5724735,1.03207054 21.88507,1.280235 C22.1988024,1.51480209 22.5812723,1.63908721 22.9729625,1.63375 C23.3647259,1.63907794 23.7472698,1.51479649 24.0610975,1.280235 C24.373694,1.03207054 24.8160716,1.03201978 25.128725,1.2801125 C25.4423154,1.51478494 25.8247308,1.6391237 26.21637,1.63375 C26.6081395,1.63912032 26.9906958,1.51483161 27.3045,1.2802275 C27.6178265,1.03197194 28.0608104,1.03202268 28.37408,1.28035 C28.6880961,1.51489763 29.0708023,1.63913515 29.4627075,1.63375 C29.8897679,1.60812172 30.298322,1.45046697 30.6318975,1.1825775 C30.7207754,1.11847504 30.8142946,1.06106692 30.9116825,1.0108275 C30.91559,1.014735 30.9204725,1.01925 30.9255975,1.0247425 C30.9392239,1.03847846 30.9515637,1.0534334 30.9624625,1.06942 C30.9113296,1.17462891 30.8499139,1.2745212 30.7791125,1.3676375 C30.4999726,1.70573141 30.3362399,2.12421616 30.3118275,2.5619725 C30.3062472,2.96404713 30.4307615,3.35715823 30.6668075,3.6827 C30.7978423,3.84603837 30.8667794,4.05051412 30.8613875,4.2598475 C30.8667997,4.4692213 30.7978619,4.67374238 30.6668075,4.8371175 C30.1935005,5.50931131 30.1935005,6.40637869 30.6668075,7.0785725 C30.9261592,7.41937656 30.9262615,7.89134357 30.6670575,8.23226 C30.1934249,8.90403702 30.1934249,9.80108298 30.6670575,10.47286 C30.9262614,10.8140028 30.9261592,11.286127 30.6668075,11.6271575 C30.1935002,12.2993962 30.1935002,13.1964963 30.6668075,13.868735 C30.9262479,14.2099479 30.9262479,14.6823071 30.6668075,15.02352 C30.1935,15.6958035 30.1935,16.5929365 30.6668075,17.26522 C30.9262479,17.6064329 30.9262479,18.0787921 30.6668075,18.420005 C30.1934997,19.0923334 30.1934997,19.9894991 30.6668075,20.6618275 C30.7978847,20.8254265 30.8668162,21.0301451 30.8613875,21.2397075 C30.8544028,21.4460797 30.7742726,21.6432463 30.6353125,21.7959825 C30.3161727,22.1644347 30.2041909,22.6689019 30.33746,23.13778 C30.4431642,23.5044061 30.6142932,23.8488967 30.8425875,24.154625 C30.8984719,24.2313352 30.9492018,24.3116711 30.9944425,24.3951025 C30.9741699,24.4254833 30.9510333,24.453852 30.92535,24.47982 L30.92535,24.4799425 C30.9204675,24.4849425 30.9160725,24.4893425 30.9121675,24.493005 C30.8151206,24.4428503 30.721929,24.3855638 30.63336,24.3216175 C30.2999764,24.0539023 29.8916976,23.8962978 29.4649025,23.8705675 C29.2440826,23.8675962 29.0246605,23.9060197 28.81799,23.98385 C28.8465727,24.1509602 28.8610886,24.3201733 28.861385,24.48971 C28.8615059,24.7137679 28.8337144,24.9369682 28.7786525,25.154155 C28.8336525,25.12083 28.8848075,25.08752 28.93121,25.056605 C29.0804615,24.9315733 29.2702688,24.8654101 29.4649025,24.87057 C29.6893575,24.9049899 29.8996902,25.0015718 30.07208,25.1493775 C30.4109475,25.379115 31.04205,25.8068475 31.648985,25.1698775 C32.29132,24.4965375 31.9002075,23.92781 31.666565,23.5879675 Z" id="Path"></path>
                    <rect id="Rectangle" x="14.75" y="14.75" width="2.25" height="2.5"></rect>
                    <rect id="Rectangle" x="11.5" y="14.75" width="2.25" height="2.5"></rect>
                    <rect id="Rectangle" x="11.5" y="7.75586" width="2.25" height="2.49414"></rect>
                    <rect id="Rectangle" x="14.75" y="18.25" width="2.25" height="2.5"></rect>
                    <rect id="Rectangle" x="14.75" y="21.75" width="2.25" height="2.25"></rect>
                    <rect id="Rectangle" x="11.5" y="18.25" width="2.25" height="2.5"></rect>
                    <rect id="Rectangle" x="11.5" y="11.25" width="2.25" height="2.5"></rect>
                    <rect id="Rectangle" x="8.25" y="18.25" width="2.25" height="2.5"></rect>
                    <rect id="Rectangle" x="8.25" y="21.75" width="2.25" height="2.25"></rect>
                    <rect id="Rectangle" x="8.25" y="14.75" width="2.25" height="2.5"></rect>
                    <rect id="Rectangle" x="8.25" y="11.25" width="2.25" height="2.5"></rect>
                    <rect id="Rectangle" x="8.25" y="7.75586" width="2.25" height="2.49414"></rect>
                    <rect id="Rectangle" x="11.5" y="21.75" width="2.25" height="2.25"></rect>
                    <rect id="Rectangle" x="18" y="14.75" width="2.25" height="2.5"></rect>
                    <rect id="Rectangle" x="21.25" y="14.75" width="2.25" height="2.5"></rect>
                    <rect id="Rectangle" x="21.25" y="18.25" width="2.25" height="2.5"></rect>
                    <rect id="Rectangle" x="21.25" y="21.75" width="2.25" height="2.25"></rect>
                    <rect id="Rectangle" x="21.25" y="11.25" width="2.25" height="2.5"></rect>
                    <path d="M27.916565,26.5839375 C27.753589,26.3718666 27.630643,26.131859 27.5537575,25.8756875 C27.5527575,25.871995 27.5524,25.86908 27.5514675,25.865465 C27.5918804,25.7781904 27.6422815,25.6958987 27.70166,25.62024 C27.9620802,25.2997682 28.1061531,24.9004704 28.1103525,24.48755 C28.1103525,24.4432075 28.1070425,24.4030925 28.1047075,24.3617425 C28.107545,24.3204375 28.11139,24.2800925 28.11139,24.2360875 C28.1170725,23.8339383 27.9925425,23.4407358 27.75639,23.1151775 C27.6532546,22.9829655 27.5881568,22.8251137 27.5681125,22.658635 C27.5897077,22.4955459 27.6543383,22.3411478 27.7553625,22.2113075 C27.9913904,21.885803 28.1159041,21.4927366 28.1103425,21.0907025 C28.1103425,21.0505575 28.1071525,21.014485 28.10523,20.976795 C28.10798,20.932045 28.11138,20.888095 28.11138,20.8398175 C28.1170747,20.4377468 27.9925408,20.0446231 27.75638,19.7191675 C27.6531842,19.5869468 27.588071,19.429046 27.5680725,19.2625175 C27.5896169,19.0992973 27.6542636,18.9447655 27.75536,18.814825 C27.9913831,18.4892253 28.1158935,18.0960835 28.11034,17.693975 C28.11034,17.653935 28.107165,17.617975 28.1052425,17.5803725 C28.1079925,17.53571 28.1113775,17.49184 28.1113775,17.44367 C28.1169289,17.0416204 27.992409,16.6485408 27.7563775,16.32302 C27.6531357,16.1908694 27.5880058,16.0329975 27.5680375,15.8664925 C27.5895268,15.7031504 27.6541876,15.5484942 27.755355,15.418465 C27.9914847,15.092919 28.1160066,14.6997409 28.110335,14.297615 C28.110335,14.2576825 28.10716,14.221825 28.105255,14.1843175 C28.108005,14.1397325 28.111375,14.09597 28.111375,14.0478875 C28.1169446,13.6459858 27.9924177,13.2530554 27.756375,12.927725 C27.6531175,12.7955992 27.5879806,12.6377385 27.56802,12.4712425 C27.5895144,12.3081231 27.6540929,12.1536792 27.7551075,12.02381 C27.99133,11.6985748 28.1159478,11.3056222 28.1103325,10.9036925 C28.1103325,10.8638525 28.1071575,10.82807 28.1052525,10.79064 C28.107985,10.746175 28.1113725,10.70252 28.1113725,10.6545625 C28.1170231,10.2525307 27.9924924,9.85945395 27.7563725,9.5340175 C27.6529825,9.40170391 27.5878234,9.24359027 27.5679725,9.07685 C27.5893843,8.91335583 27.6540724,8.7585467 27.75535,8.628425 C27.991396,8.30288323 28.1159103,7.90977213 28.11033,7.5076975 C28.11033,7.46798 28.107155,7.432305 28.105265,7.39498 C28.10798,7.3505775 28.1113675,7.3070125 28.1113675,7.2591475 C28.1169312,6.85717099 27.9924075,6.46416461 27.7563675,6.13874 C27.6637163,6.0182581 27.6010201,5.87748484 27.573445,5.72802 C27.6256439,5.53020564 27.7194536,5.34580727 27.8486075,5.1871425 C28.0092675,4.9565825 28.265005,4.5893325 28.20696,4.1717 C28.2448878,3.85892903 28.129874,3.54705915 27.89821,3.33355 C27.290055,2.6978 26.659425,3.125085 26.3208025,3.3548 C26.1480784,3.50269674 25.9374099,3.59930176 25.7126325,3.633685 C25.5176128,3.63884532 25.3274124,3.5726634 25.17772,3.4475575 C24.5285564,2.97628501 23.6498511,2.97628501 23.0006875,3.4475575 C22.6879798,3.69568158 22.2455647,3.69573233 21.9328,3.44768 C21.284044,2.97628972 20.405539,2.97624027 19.75673,3.4475575 C19.4441137,3.69568103 19.0017608,3.69573178 18.6890875,3.44768 C18.0403371,2.97624458 17.1617829,2.97624458 16.5130325,3.44768 C16.2004508,3.69568599 15.7582167,3.69568599 15.445635,3.44768 C14.7970642,2.97624457 13.9186383,2.97624457 13.2700675,3.44768 C12.9578491,3.69563668 12.5159204,3.69568745 12.203645,3.4478025 C11.5552175,2.9762492 10.6768031,2.97619973 10.0283225,3.44768 C9.71583174,3.69568678 9.27365826,3.69568678 8.9611675,3.44768 C8.31250664,2.97624398 7.43401586,2.97624398 6.785355,3.44768 C6.63618287,3.57268903 6.44645081,3.63884206 6.2518925,3.63368 C6.02735106,3.59931808 5.81692326,3.5027495 5.644455,3.3549175 C5.3055875,3.1252125 4.6747275,2.6981675 4.067535,3.3342875 C3.83759319,3.54707978 3.72289774,3.85676146 3.7587575,4.1679975 C3.6983025,4.587905 3.9550625,4.957105 4.11618,5.1884975 C4.24735688,5.3487078 4.34172482,5.53578711 4.3926075,5.7365 C4.36414997,5.88413491 4.30167585,6.02310573 4.2101425,6.142385 C3.97410266,6.46822259 3.84959802,6.8615742 3.8551625,7.263885 C3.8551625,7.3050375 3.8583675,7.342055 3.8603975,7.380635 C3.857835,7.4238175 3.8544925,7.4659925 3.8544925,7.51244 C3.84886811,7.91467274 3.97347652,8.30793861 4.2097175,8.633535 C4.31276457,8.76570174 4.37784074,8.92345483 4.39795,9.089835 C4.37682539,9.25385046 4.3120504,9.40918559 4.21039,9.5396175 C3.97416709,9.86501453 3.84955421,10.2581015 3.855165,10.6601625 C3.855165,10.7014125 3.858385,10.7385775 3.860415,10.7772425 C3.8578375,10.8204925 3.854495,10.8627425 3.854495,10.9092925 C3.84888904,11.3114847 3.97349695,11.704706 4.20972,12.030265 C4.3126928,12.1622449 4.37775739,12.3197885 4.3979225,12.4859675 C4.37673145,12.649928 4.31197391,12.8052099 4.2103925,12.935645 C3.97415218,13.261073 3.84953865,13.654199 3.8551675,14.056295 C3.8551675,14.0976625 3.8583875,14.1349075 3.8604325,14.173665 C3.8578375,14.217015 3.8544975,14.2593725 3.8544975,14.30602 C3.84886416,14.7081784 3.97347603,15.1013692 4.2097225,15.42687 C4.31259376,15.5586782 4.37763812,15.7160068 4.3978775,15.8819775 C4.37662097,16.0458427 4.31188528,16.20103 4.2103925,16.331425 C3.97415218,16.656853 3.84953865,17.049979 3.8551675,17.452075 C3.8551675,17.4935325 3.8583875,17.5308725 3.8604475,17.56972 C3.8578525,17.6131625 3.8544975,17.6556275 3.8544975,17.70238 C3.84887364,18.1044236 3.97348845,18.4974948 4.2097225,18.8228625 C4.31248755,18.9544383 4.37751369,19.1114969 4.3978325,19.2772075 C4.37647291,19.4406479 4.31175312,19.5953916 4.2103925,19.7253725 C3.97417624,20.0505814 3.84955819,20.4435076 3.8551675,20.8454125 C3.8551675,20.8869925 3.8583875,20.9244375 3.8604625,20.9633925 C3.8578525,21.0068925 3.8544975,21.0494525 3.8544975,21.0962975 C3.84885995,21.4984187 3.97347352,21.8915719 4.2097225,22.217025 C4.31244508,22.3487171 4.3774589,22.5058432 4.3978175,22.671615 C4.37646724,22.8351709 4.31175672,22.9900389 4.210395,23.1201625 C3.97417476,23.4456073 3.8495636,23.8387319 3.85517,24.24083 C3.85517,24.2825025 3.858405,24.3200225 3.86048,24.359055 C3.857855,24.402665 3.8544975,24.4453425 3.8544975,24.492305 C3.84890488,24.8944196 3.97351406,25.287559 4.2097225,25.6130325 C4.30166767,25.732651 4.3641925,25.8722164 4.3922475,26.0204575 C4.34000922,26.2181462 4.24621899,26.402424 4.1171325,26.561 C3.9561075,26.7920475 3.6997425,27.16035 3.7592825,27.5791125 C3.72098571,27.8922501 3.83574709,28.2046803 4.0676325,28.418575 C4.24302809,28.6243517 4.49776655,28.7456829 4.7680725,28.7521925 C5.08901321,28.7226843 5.39413159,28.5992105 5.64527,28.3972125 C5.81792849,28.2493842 6.02850125,28.1528086 6.25318,28.118405 C6.44830872,28.1131897 6.63862185,28.1794347 6.7883375,28.304685 C7.43742451,28.7759178 8.31605353,28.7758684 8.9650875,28.3045625 C9.2778663,28.0563983 9.72036679,28.0563475 10.0332025,28.30444 C10.6818258,28.7759576 11.5603617,28.7759576 12.208985,28.30444 C12.5217291,28.0563933 12.9641109,28.0563933 13.276855,28.30444 C13.9255679,28.7759569 14.8041671,28.7759569 15.45288,28.30444 C15.7654418,28.0563931 16.2077007,28.0563931 16.5202625,28.30444 C17.1687957,28.775957 18.0472668,28.775957 18.6958,28.30444 C19.0079969,28.0564377 19.4499536,28.0563869 19.7622075,28.3043175 C20.4105077,28.7759531 21.2889041,28.7760026 21.9372575,28.30444 C22.2498193,28.0563931 22.6920782,28.0563931 23.00464,28.30444 C23.6531732,28.775957 24.5316443,28.775957 25.1801775,28.30444 C25.329429,28.1794083 25.5192363,28.1132451 25.71387,28.118405 C25.938325,28.1528249 26.1486577,28.2494068 26.3210475,28.3972125 C26.66016,28.6268275 27.2910175,29.05456 27.8979525,28.4177125 C28.1474159,28.1954032 28.274412,27.8664682 28.2390625,27.5341975 C28.2575597,27.187786 28.1420858,26.8475346 27.916565,26.5839375 Z M26.866975,10.25 C26.8835775,10.2763375 26.9000875,10.302155 26.9157725,10.326415 C27.0468084,10.4898002 27.1157438,10.6943143 27.1103525,10.903685 C27.1145138,11.02228 27.0931413,11.1403844 27.0476825,11.25 L24.5,11.25 L24.5,13.75 L26.934815,13.75 C27.0548105,13.9067872 27.1168345,14.1002775 27.1103525,14.2976075 C27.1177027,14.4566349 27.0772126,14.6142145 26.99411,14.75 L24.5,14.75 L24.5,17.25 L26.9990225,17.25 C27.0788565,17.3838747 27.1175708,17.5382659 27.11035,17.69397 C27.1166087,17.8947115 27.0526518,18.0913495 26.9295,18.25 L24.5,18.25 L24.5,20.75 L27.05046,20.75 C27.0939382,20.858154 27.1143375,20.9741997 27.11035,21.0906975 C27.1157419,21.3000309 27.0468048,21.5045066 26.91577,21.667845 C26.89891,21.6939225 26.8811775,21.72151 26.86327,21.7499975 L24.5,21.7499975 L24.5,23.9999975 L26.9729775,23.9999975 C27.1764802,24.3096792 27.1526611,24.7162007 26.914385,24.9999975 L24.5,24.9999975 L24.5,27.5530525 C24.3780072,27.6286594 24.2358707,27.6652949 24.09253,27.6580775 C23.8978963,27.6632374 23.708089,27.5970742 23.5588375,27.4720425 C23.54016,27.4596075 23.5199275,27.4464225 23.5,27.4333775 L23.5,25 L21.25,25 L21.25,27.55696 C21.1295164,27.6298394 20.9900031,27.6650525 20.849365,27.65808 C20.6549898,27.6631412 20.4654598,27.5970274 20.316405,27.4721675 C20.2953325,27.458115 20.2726875,27.4432525 20.25,27.428435 L20.25,25 L18,25 L18,27.5617375 C17.8815463,27.6313064 17.7453633,27.6647905 17.608155,27.6580825 C17.4135213,27.6632424 17.223714,27.5970792 17.0744625,27.4720475 C17.0508275,27.456315 17.025665,27.439745 17,27.4230975 L17,25 L14.75,25 L14.75,27.5655525 C14.633021,27.6324683 14.4993594,27.6645713 14.36475,27.6580825 C14.1701163,27.6632424 13.980309,27.5970792 13.8310575,27.4720475 C13.8053075,27.4549275 13.778155,27.4369675 13.7500025,27.41878 L13.7500025,25 L11.5,25 L11.5,27.5691225 C11.384393,27.6335721 11.253058,27.6643864 11.12085,27.65808 C10.9262907,27.6632391 10.7365605,27.5970724 10.5874025,27.472045 C10.5596525,27.4535675 10.53061,27.4342325 10.5,27.414545 L10.5,25 L8.25,25 L8.25,27.5725 C8.13581275,27.6345945 8.00678752,27.6641965 7.8769525,27.6580875 C7.68192813,27.663245 7.49172531,27.5970516 7.34204,27.47193 C7.3129425,27.4525825 7.282255,27.4323025 7.25,27.4116575 L7.25,25 L5.0045775,25 C4.89971517,24.8520564 4.84692676,24.67349 4.8544925,24.49231 C4.84694419,24.3173275 4.89627027,24.1446064 4.9950875,24 L7.25,24 L7.25,21.75 L5.0979625,21.75 C5.08133,21.7236625 5.06479,21.697845 5.0490725,21.673585 C4.91803663,21.5101998 4.8491012,21.3056857 4.8544925,21.096315 C4.85032,20.9777109 4.87172384,20.859598 4.91725,20.75 L7.25,20.75 L7.25,18.25 L5.03032,18.25 C4.910145,18.0932911 4.84800845,17.8997694 4.8544925,17.7023925 C4.84713817,17.5433606 4.8876398,17.3857771 4.970765,17.25 L7.25,17.25 L7.25,14.75 L4.96585,14.75 C4.88600002,14.6161308 4.84727481,14.4617377 4.8544925,14.30603 C4.84825774,14.1052898 4.91221696,13.9086585 5.035355,13.75 L7.25,13.75 L7.25,11.25 L4.9144275,11.25 C4.87091929,11.1418534 4.85050332,11.0258047 4.85449,10.9093025 C4.84909688,10.7000055 4.91803575,10.4955672 5.04907,10.332275 C5.0659775,10.3061525 5.0837375,10.278525 5.1016825,10.25 L7.25,10.25 L7.25,7.75586 L4.8815,7.75586 C4.86219847,7.67620023 4.85312541,7.59440577 4.8545,7.5124525 C4.84902003,7.30258071 4.91804166,7.09754937 5.049325,6.9337175 C5.0840375,6.8799675 5.1217575,6.820925 5.1592025,6.75586 L7.25,6.75586 L7.25,4.586395 C7.2811425,4.566395 7.310685,4.5467375 7.3388675,4.527955 C7.48811895,4.40292335 7.67792628,4.33676014 7.87256,4.34192 C8.00412957,4.33565775 8.13483864,4.36621044 8.25,4.430145 L8.25,6.75586 L10.5,6.75586 L10.5,4.5817875 C10.5284425,4.5634475 10.5558175,4.545335 10.5817875,4.5280775 C10.7310974,4.40296841 10.9209942,4.33676049 11.1157225,4.34192 C11.2499964,4.33546777 11.3833193,4.36750635 11.5,4.434265 L11.5,6.75586 L13.75,6.75586 L13.75,4.5762775 C13.775315,4.559845 13.800155,4.54347 13.8234875,4.5279525 C13.9725718,4.40296435 14.1622113,4.33679893 14.35669,4.3419175 C14.4944499,4.33518113 14.6311704,4.36890066 14.75,4.43892 L14.75,6.75586 L17,6.75586 L17,4.571595 C17.022675,4.55681 17.0453175,4.5419775 17.0664075,4.527955 C17.215659,4.40292335 17.4054663,4.33676014 17.6001,4.34192 C17.7404449,4.33497345 17.8796744,4.37002541 18,4.4425975 L18,6.75586 L20.25,6.75586 L20.25,4.56752 C20.270355,4.554215 20.291,4.540755 20.3100575,4.528075 C20.4593674,4.40296591 20.6492642,4.33675799 20.8439925,4.3419175 C20.9867399,4.33477404 21.1282998,4.371069 21.25,4.446015 L21.25,6.75586 L23.5,6.75586 L23.5,4.5632175 C23.518,4.5514075 23.5365,4.5393675 23.5534675,4.5280775 C23.7029654,4.40296181 23.8930158,4.33676113 24.0878925,4.34192 C24.2329829,4.33459889 24.3768258,4.37197434 24.5,4.449 L24.5,6.75587 L26.8076625,6.75587 C26.8445125,6.8196375 26.8816075,6.8777275 26.91577,6.9305525 C27.0468048,7.09389087 27.1157419,7.29836662 27.11035,7.5077 C27.1118568,7.59129486 27.1024124,7.67472723 27.0822575,7.75587 L24.5,7.75587 L24.5,10.25 L26.866975,10.25 Z" id="Shape"></path>
                    <rect id="Rectangle" x="14.75" y="11.25" width="2.25" height="2.5"></rect>
                    <rect id="Rectangle" x="21.25" y="7.75586" width="2.25" height="2.49414"></rect>
                    <rect id="Rectangle" x="18" y="7.75586" width="2.25" height="2.49414"></rect>
                    <rect id="Rectangle" x="18" y="21.75" width="2.25" height="2.25"></rect>
                    <rect id="Rectangle" x="18" y="18.25" width="2.25" height="2.5"></rect>
                    <rect id="Rectangle" x="18" y="11.25" width="2.25" height="2.5"></rect>
                    <rect id="Rectangle" x="14.75" y="7.75586" width="2.25" height="2.49414"></rect>
                </g>
            </g>
        </g>
    </g>
</svg>