<?xml version="1.0" encoding="UTF-8"?>
<svg width="35px" height="32px" viewBox="0 0 35 32" version="1.1" xmlns="http://www.w3.org/2000/svg" xmlns:xlink="http://www.w3.org/1999/xlink">
    <title>helmet</title>
    <g id="naslovna" stroke="none" stroke-width="1" fill="none" fill-rule="evenodd">
        <g id="index" transform="translate(-506.000000, -879.000000)" fill="#FFFFFF" fill-rule="nonzero">
            <g id="uvps" transform="translate(0.000000, 854.000000)">
                <g id="helmet" transform="translate(506.000000, 25.000000)">
                    <path d="M8.66181411,0 L0,0 C0.0723158778,0.739963445 0.770485923,1.32279635 1.61991353,1.32279635 L7.04208989,1.32279635 C7.89113888,1.32279635 8.58949823,0.739963445 8.66181411,0 Z" id="Path"></path>
                    <path d="M1.68039815,1.65349544 C1.67142682,1.70686711 1.66573348,1.76064934 1.66573348,1.81545794 C1.66573348,2.27301738 1.97852217,2.64559271 2.36342651,2.64559271 L2.99832027,2.64559271 L2.99832027,1.65801151 L1.75441158,1.65801151 C1.72939538,1.65821678 1.70506929,1.65493237 1.68039815,1.65349544 Z" id="Path"></path>
                    <path d="M15.6578947,5.03106992 L15.6578947,0.591003154 C15.6578947,0.373761407 15.6578947,0.176760356 15.6578947,0 L8.97577837,0 C8.90312826,0.983810929 8.08308542,1.7624491 7.082923,1.7624491 L3.33146697,1.7624491 L3.33146697,5.03106992 C3.33146697,5.35693254 3.59609406,5.6218845 3.92132564,5.6218845 L15.0682243,5.6218845 C15.3932676,5.62169592 15.6578947,5.35674396 15.6578947,5.03106992 Z M13.8715678,2.35232078 L11.6962051,2.35232078 C11.3367188,2.35232078 11.044048,2.05889356 11.044048,1.69833261 C11.044048,1.33796023 11.3367188,1.04453301 11.6962051,1.04453301 L13.871756,1.04453301 C14.2314305,1.04453301 14.5242895,1.33796023 14.5242895,1.69833261 C14.5241013,2.05889356 14.2314305,2.35232078 13.8715678,2.35232078 Z" id="Shape"></path>
                    <path d="M4.3319045,13.1683621 L6.82321649,10.2007657 L7.82645035,6.71541699 L7.27083451,5.9804293 C6.71743752,6.40939894 6.20938015,6.89307296 5.75448942,7.424 C4.14521758,9.30969395 3.58925448,11.4203447 3.42138904,12.9875969 L4.3319045,13.1683621 Z" id="Path"></path>
                    <polygon id="Path" points="11.2145958 18.1755993 11.2145958 27.6907977 12.8814433 26.6980369 12.8814433 18.6109662"></polygon>
                    <path d="M16.2622963,12.1189312 L11.5335887,12.1189312 L8.98518719,16.4525388 L13.5089419,17.6342689 L24.549376,17.6342689 C24.7672495,17.63426 24.9650224,17.7606562 25.0551948,17.9575366 L27.778268,23.9043805 L28.9847184,24.8626704 L31.1516202,20.9212033 L28.7269821,15.6260655 L25.908968,17.0246862 C25.6950336,17.1308428 25.4366681,17.0891859 25.2675789,16.9212736 L24.1563473,15.8182061 C24.013665,15.6765632 23.9595626,15.4692648 24.0150125,15.2766688 L24.924,12.1189312 L22.8353706,12.1189312 C22.5645131,13.7110703 21.1754658,14.8765873 19.5488334,14.8765873 C17.922201,14.8765873 16.5331537,13.7110703 16.2622963,12.1189312 L16.2622963,12.1189312 Z M13.4370591,16.5312013 L12.3258275,16.5312013 L12.3258275,13.2219987 L13.4370591,13.2219987 L13.4370591,16.5312013 Z M15.6595225,16.5312013 L14.5482908,16.5312013 L14.5482908,13.2219987 L15.6595225,13.2219987 L15.6595225,16.5312013 Z M28.191299,22.5054151 L27.5748432,21.5876629 L29.2416907,20.4845954 L29.8581465,21.4023476 L28.191299,22.5054151 Z M28.6860749,18.2784603 L29.3025307,19.1962125 L27.6356831,20.2992801 L27.0192273,19.3815279 L28.6860749,18.2784603 Z" id="Shape"></path>
                    <polygon id="Path" points="11.2145958 29.9786977 13.6423592 31.1836611 14.4582116 28.3489843 13.421363 27.6628763 11.2145958 28.9771813"></polygon>
                    <path d="M33.1105827,11.2605378 C32.1820098,8.71479584 30.6936538,6.70024981 28.6864916,5.2730183 C26.325541,3.59414951 23.2512491,2.74285714 19.5488334,2.74285714 C14.7096278,2.74285714 10.9020619,3.61579721 8.17801628,5.34196003 L8.88100922,6.27267326 C8.98534002,6.41073962 9.01854582,6.58932539 8.97074118,6.75526531 L7.8595095,10.6160017 C7.83823851,10.689881 7.80166785,10.7585401 7.75213673,10.8175873 L4.97405751,14.1267899 C4.84363025,14.2821479 4.6380074,14.354189 4.43823549,14.3145182 L3.35685457,14.0999026 C3.35443733,14.4728084 3.37103635,14.7775997 3.38930222,14.9909054 L7.86964948,16.1612601 L10.734752,11.2894934 C10.8343093,11.1200794 11.0170125,11.0158934 11.2145958,11.0158637 L16.2622963,11.0158637 C16.5331537,9.42372453 17.922201,8.25820759 19.5488334,8.25820759 C21.1754658,8.25820759 22.5645131,9.42372453 22.8353706,11.0158637 L25.6606077,11.0158637 C25.8079682,11.0158583 25.9492952,11.0739627 26.0534976,11.1773941 L29.3871926,14.4865967 C29.4342987,14.5333532 29.4725504,14.5881374 29.5001215,14.648334 L32.2782008,20.7152055 C32.3504991,20.8730775 32.3437847,21.0555108 32.2600738,21.2077251 L29.8659946,25.5625668 L30.3004862,25.9072754 L32.1108909,25.9072754 C33.0361997,24.9652557 33.7304417,22.4703238 33.9942203,20.4616378 C34.2386218,18.6002803 34.448853,14.9298231 33.1105827,11.2605378 Z" id="Path"></path>
                    <polygon id="Path" points="15.5563169 28.549329 14.819987 31.1075494 28.9706196 26.263842 27.2125817 24.8677721"></polygon>
                    <polygon id="Path" points="28.0563538 14.7254798 25.9354292 12.6202065 25.1734021 15.2676375 25.7703418 15.8601226"></polygon>
                    <path d="M21.7712968,11.5673974 C21.7712968,10.3489827 20.7762661,9.36126236 19.5488334,9.36126236 C18.3214008,9.36126236 17.32637,10.3489827 17.32637,11.5673974 C17.32637,12.7858122 18.3214008,13.7735325 19.5488334,13.7735325 C20.7756949,13.7721647 21.7699189,12.7852452 21.7712968,11.5673974 Z M18.9932176,11.0158637 L20.1044493,11.0158637 L20.1044493,12.1189312 L18.9932176,12.1189312 L18.9932176,11.0158637 Z" id="Shape"></path>
                </g>
            </g>
        </g>
    </g>
</svg>